<?xml version="1.0" standalone="no"?>
<!DOCTYPE svg PUBLIC "-//W3C//DTD SVG 20010904//EN"
 "http://www.w3.org/TR/2001/REC-SVG-20010904/DTD/svg10.dtd">
<svg version="1.0" xmlns="http://www.w3.org/2000/svg"
 width="500.000000pt" height="500.000000pt" viewBox="0 0 500.000000 500.000000"
 preserveAspectRatio="xMidYMid meet">
<metadata>
Created by potrace 1.14, written by Peter Selinger 2001-2017
</metadata>
<g transform="translate(0.000000,500.000000) scale(0.100000,-0.100000)"
fill="#000000" stroke="none">
<path d="M2275 3889 c-220 -30 -493 -142 -666 -273 -206 -156 -378 -392 -463
-636 -64 -182 -86 -322 -81 -525 3 -121 10 -174 39 -315 11 -50 59 -185 91
-256 76 -167 183 -320 312 -446 111 -109 146 -138 160 -133 7 2 12 -1 10 -8
-1 -7 6 -11 15 -11 10 1 15 -2 13 -7 -8 -11 71 -63 84 -55 6 4 50 -12 98 -34
101 -47 281 -111 366 -130 32 -8 60 -17 62 -21 7 -11 -162 28 -245 57 -41 14
-120 48 -174 75 -55 27 -102 49 -105 49 -8 -1 42 -40 51 -40 4 0 38 -15 75
-33 91 -44 200 -82 303 -107 245 -58 527 -45 775 36 113 37 295 133 398 210
297 224 501 587 541 964 7 64 7 269 1 320 -51 380 -232 723 -510 963 -198 171
-430 285 -690 338 -116 23 -353 33 -460 18z m355 -14 c156 -20 344 -77 473
-141 560 -282 888 -882 817 -1494 -10 -88 -11 -95 -29 -170 -82 -358 -341
-706 -636 -853 -161 -80 -266 -97 -425 -70 -89 15 -225 96 -360 213 -34 30
-67 54 -72 52 -5 -1 -7 2 -4 7 9 13 -113 121 -170 152 -104 55 -205 75 -434
83 -221 9 -284 31 -386 137 -146 154 -260 382 -300 602 -21 115 -20 293 1 396
54 260 163 473 340 659 273 289 632 442 1025 436 58 -1 130 -5 160 -9z m-883
-2241 c-3 -3 -12 -4 -19 -1 -8 3 -5 6 6 6 11 1 17 -2 13 -5z m278 -8 c136 -25
217 -64 315 -156 l45 -41 -65 46 c-89 65 -148 93 -238 115 -74 18 -113 23
-252 35 -35 3 -66 8 -69 10 -11 11 191 4 264 -9z m-85 -22 c148 -13 282 -62
357 -131 l38 -35 -35 22 c-70 43 -177 88 -250 104 -108 25 -110 25 -110 16 0
-4 24 -11 53 -14 71 -9 203 -56 252 -89 25 -17 33 -27 22 -27 -9 0 -17 5 -17
12 0 6 -3 8 -7 5 -3 -4 -11 -3 -17 2 -41 32 -192 71 -370 96 -60 9 -112 18
-115 20 -6 7 63 5 132 -4 31 -4 57 -4 57 0 0 4 -39 10 -87 14 -114 10 -155 26
-48 20 44 -3 109 -8 145 -11z m63 -75 c104 -21 177 -45 177 -60 0 -5 6 -6 13
-3 8 3 20 -3 28 -13 12 -16 12 -17 -2 -6 -9 7 -19 10 -22 6 -4 -3 -12 -1 -19
4 -7 6 -24 13 -38 17 -14 4 -49 13 -78 21 -28 8 -102 24 -164 35 -61 11 -114
23 -117 26 -9 10 113 -5 222 -27z m-158 -9 c8 -13 -5 -13 -25 0 -13 8 -13 10
2 10 9 0 20 -4 23 -10z m140 -19 c50 -10 104 -25 120 -32 17 -7 33 -13 37 -13
3 -1 10 -4 13 -8 9 -9 -31 -2 -120 22 -38 10 -91 22 -117 25 -27 4 -48 11 -48
16 0 12 12 11 115 -10z m19 -40 c4 -5 -3 -7 -14 -4 -23 6 -26 13 -6 13 8 0 17
-4 20 -9z m61 -13 c5 4 5 1 1 -6 -5 -9 -12 -9 -27 -2 -10 6 -19 13 -19 16 0 2
8 0 19 -5 10 -6 22 -7 26 -3z m-295 -204 c0 -2 -9 0 -20 6 -11 6 -20 13 -20
16 0 2 9 0 20 -6 11 -6 20 -13 20 -16z m230 16 c0 -5 -7 -7 -15 -4 -8 4 -15 8
-15 10 0 2 7 4 15 4 8 0 15 -4 15 -10z m138 -70 c106 -36 192 -68 192 -72 0
-12 -360 107 -387 129 -10 8 -13 13 -7 11 5 -2 96 -32 202 -68z m24 24 c138
-48 144 -51 137 -58 -5 -5 -248 75 -274 91 -38 23 4 13 137 -33z m93 -3 c100
-41 124 -61 30 -26 -39 14 -90 33 -115 42 -25 9 -49 20 -54 24 -15 13 57 -8
139 -40z m32 18 c29 -13 53 -27 53 -31 0 -8 -48 10 -64 24 -6 4 -18 8 -27 8
-9 0 -23 8 -30 17 -16 19 -16 19 68 -18z m28 11 c3 -6 -1 -7 -9 -4 -18 7 -21
14 -7 14 6 0 13 -4 16 -10z m-206 -72 c102 -33 191 -65 196 -71 11 -11 19 -13
-150 38 -119 36 -265 92 -265 102 0 3 7 2 16 -1 9 -4 100 -34 203 -68z m14
-37 c67 -22 142 -45 166 -51 23 -6 41 -14 38 -16 -14 -15 -278 66 -399 121
-83 38 -81 49 2 15 39 -16 126 -47 193 -69z"/>
<path d="M1793 3518 c-6 -24 -17 -56 -23 -72 l-11 -29 -34 69 c-19 38 -34 61
-35 52 0 -10 -1 -21 -2 -25 -1 -5 -7 -41 -13 -81 -9 -58 -9 -70 1 -60 10 11
20 51 24 103 1 6 15 -16 31 -49 17 -32 32 -56 35 -54 2 2 12 31 22 64 l19 59
18 -57 c10 -32 23 -58 28 -58 4 0 6 8 3 18 -32 113 -47 162 -49 162 -2 0 -8
-19 -14 -42z"/>
<path d="M2088 3545 c-3 -4 5 -26 19 -50 16 -29 24 -58 23 -82 -3 -53 -1 -60
10 -43 5 8 10 27 10 43 0 18 14 42 41 72 26 28 36 45 27 45 -8 0 -27 -14 -41
-31 -24 -29 -47 -32 -47 -6 -1 17 -35 59 -42 52z"/>
<path d="M2723 3285 c-40 -35 -69 -66 -64 -69 5 -3 14 1 21 9 26 32 90 6 90
-36 0 -34 20 -50 20 -17 1 13 3 58 7 101 3 42 4 77 2 77 -2 0 -37 -29 -76 -65z
m53 -41 c-5 -13 -9 -12 -30 2 l-25 16 27 23 27 24 3 -26 c2 -13 1 -31 -2 -39z"/>
<path d="M3060 3163 c0 -8 -10 -21 -69 -94 -13 -17 -20 -33 -16 -37 4 -4 18 8
32 25 l25 33 30 -25 c16 -14 35 -25 41 -25 7 1 -5 15 -25 33 l-37 32 19 23 19
23 34 -25 c19 -14 37 -23 40 -19 4 3 -10 19 -31 34 -36 28 -62 37 -62 22z"/>
<path d="M1612 3147 c55 -22 59 -53 56 -449 -3 -340 -4 -357 -23 -378 -11 -12
-29 -26 -40 -31 -12 -5 18 -8 80 -8 92 0 98 1 69 13 -54 24 -57 45 -58 397 -1
175 2 315 6 311 5 -5 28 -66 52 -138 24 -71 74 -214 111 -319 36 -104 72 -206
78 -225 12 -35 12 -35 78 -38 l66 -3 36 98 c19 54 56 159 82 233 48 138 80
229 134 380 l30 85 1 -195 c5 -552 4 -557 -60 -587 -20 -9 3 -12 125 -12 135
0 147 1 119 13 -54 24 -58 51 -58 426 0 375 4 402 58 426 29 12 23 13 -75 14
l-106 0 -71 -202 c-39 -112 -100 -286 -135 -388 -36 -102 -71 -200 -79 -219
l-14 -34 -16 49 c-9 27 -49 141 -88 254 -39 113 -97 279 -129 370 l-57 165
-99 2 c-82 1 -95 -1 -73 -10z"/>
<path d="M3275 2886 c-33 -30 -56 -58 -52 -62 4 -4 18 3 31 15 30 28 39 15 27
-38 -5 -23 -5 -43 -1 -46 10 -6 20 19 20 51 0 21 3 22 24 14 19 -7 30 -4 50
11 14 11 24 28 23 38 -3 21 -41 71 -53 71 -5 0 -36 -25 -69 -54z m97 -31 c-14
-31 -24 -31 -58 -2 l-27 23 28 23 c29 22 29 22 49 2 17 -17 18 -24 8 -46z"/>
<path d="M3503 2627 c-70 -31 -54 -155 22 -169 55 -11 123 53 108 101 -21 69
-71 95 -130 68z m72 -13 c20 -8 43 -53 39 -77 -10 -65 -105 -81 -132 -22 -27
58 32 122 93 99z"/>
<path d="M2884 2618 c-4 -6 -56 -153 -151 -423 -19 -55 -57 -163 -84 -240
-103 -289 -90 -264 -144 -283 -24 -8 -5 -10 95 -10 104 0 119 2 91 11 -25 8
-38 21 -52 52 -10 22 -17 52 -16 65 5 48 39 130 60 145 29 20 83 19 150 -4 58
-20 89 -25 146 -23 27 2 44 12 78 47 49 51 41 56 76 -45 9 -25 27 -78 42 -118
29 -83 26 -106 -13 -121 -20 -7 10 -10 117 -10 79 -1 141 2 137 7 -4 4 -11 7
-14 7 -4 1 -17 6 -29 13 -25 14 -23 9 -204 527 -77 220 -142 401 -144 403 -6
7 -137 7 -141 0z m115 -322 c50 -142 90 -260 89 -261 -37 -30 -87 -31 -164 -4
-76 27 -153 29 -189 5 -15 -10 -29 -16 -31 -13 -4 3 90 280 116 342 5 11 23
64 42 117 18 53 36 92 39 85 4 -7 48 -129 98 -271z"/>
<path d="M3709 2249 c-6 -12 -9 -34 -6 -49 8 -38 -15 -69 -40 -54 -13 8 -18
23 -17 53 1 44 -10 55 -21 20 -14 -44 17 -98 57 -99 26 0 46 37 42 77 -4 47
10 67 38 52 15 -8 19 -19 16 -45 -3 -23 0 -34 9 -34 18 0 16 51 -3 78 -20 28
-60 29 -75 1z"/>
</g>
</svg>
